solid PASSENGER5
  facet normal -0.9999898383 -0.0044116325 0.0009277512
    outer loop
      vertex 0.2781610489 2.3837740421 0.9384321570
      vertex 0.2780010104 2.2227010727 0.0000000000
      vertex 0.2788780332 2.2211995125 0.9381712079
    endloop
  endfacet
  facet normal -0.9999898451 -0.0044101434 0.0009274956
    outer loop
      vertex 0.2772840261 2.3852756023 0.0000000000
      vertex 0.2780010104 2.2227010727 0.0000000000
      vertex 0.2781610489 2.3837740421 0.9384321570
    endloop
  endfacet
  facet normal 0.9999898399 0.0044112656 -0.0009277870
    outer loop
      vertex 0.5289929509 2.2223029137 0.9379389882
      vertex 0.5273989439 2.3863790035 0.0000000000
      vertex 0.5282760262 2.3848774433 0.9381998777
    endloop
  endfacet
  facet normal 0.9999898431 0.0044105100 -0.0009279192
    outer loop
      vertex 0.5281159878 2.2238044739 0.0000000000
      vertex 0.5273989439 2.3863790035 0.0000000000
      vertex 0.5289929509 2.2223029137 0.9379389882
    endloop
  endfacet
  facet normal -0.0009328493 0.0016013567 -0.9999982827
    outer loop
      vertex 0.2781610489 2.3837740421 0.9384321570
      vertex 0.2007171363 2.2208547592 0.9382435083
      vertex 0.2000001222 2.3834290504 0.9385045171
    endloop
  endfacet
  facet normal -0.0009320806 0.0016009913 -0.9999982840
    outer loop
      vertex 0.2788780332 2.2211995125 0.9381712079
      vertex 0.2007171363 2.2208547592 0.9382435083
      vertex 0.2781610489 2.3837740421 0.9384321570
    endloop
  endfacet
  facet normal -0.0009336029 0.0016006156 -0.9999982832
    outer loop
      vertex 0.5289929509 2.2223029137 0.9379389882
      vertex 0.6064369678 2.3852224350 0.9381274581
      vertex 0.6071539521 2.2226476669 0.9378665686
    endloop
  endfacet
  facet normal -0.0009336085 0.0016006182 -0.9999982832
    outer loop
      vertex 0.5282760262 2.3848774433 0.9381998777
      vertex 0.6064369678 2.3852224350 0.9381274581
      vertex 0.5289929509 2.2223029137 0.9379389882
    endloop
  endfacet
  facet normal 0.0009352596 -0.0016024413 0.9999982787
    outer loop
      vertex 0.2012433112 2.2199535370 1.5010070801
      vertex 0.3791882396 2.2801423073 1.5009371042
      vertex 0.2005263120 2.3825283051 1.5012682676
    endloop
  endfacet
  facet normal 0.0009347814 -0.0016010275 0.9999982814
    outer loop
      vertex 0.6076801419 2.2217469215 1.5006300211
      vertex 0.3791882396 2.2801423073 1.5009371042
      vertex 0.2012433112 2.2199535370 1.5010070801
    endloop
  endfacet
  facet normal 0.0009340903 -0.0016037318 0.9999982778
    outer loop
      vertex 0.6076801419 2.2217469215 1.5006300211
      vertex 0.4292112589 2.2803628445 1.5008907318
      vertex 0.3791882396 2.2801423073 1.5009371042
    endloop
  endfacet
  facet normal 0.0009349938 -0.0016009807 0.9999982813
    outer loop
      vertex 0.6069631577 2.3843212128 1.5008909702
      vertex 0.4292112589 2.2803628445 1.5008907318
      vertex 0.6076801419 2.2217469215 1.5006300211
    endloop
  endfacet
  facet normal 0.0009360327 -0.0016027570 0.9999982775
    outer loop
      vertex 0.6069631577 2.3843212128 1.5008909702
      vertex 0.4289216995 2.3460178375 1.5009962320
      vertex 0.4292112589 2.2803628445 1.5008907318
    endloop
  endfacet
  facet normal 0.0009353599 -0.0015996299 0.9999982831
    outer loop
      vertex 0.2005263120 2.3825283051 1.5012682676
      vertex 0.4289216995 2.3460178375 1.5009962320
      vertex 0.6069631577 2.3843212128 1.5008909702
    endloop
  endfacet
  facet normal 0.0009317951 -0.0016219297 0.9999982505
    outer loop
      vertex 0.2005263120 2.3825283051 1.5012682676
      vertex 0.3788986802 2.3457970619 1.5010424852
      vertex 0.4289216995 2.3460178375 1.5009962320
    endloop
  endfacet
  facet normal 0.0009361161 -0.0016009468 0.9999982803
    outer loop
      vertex 0.3791882396 2.2801423073 1.5009371042
      vertex 0.3788986802 2.3457970619 1.5010424852
      vertex 0.2005263120 2.3825283051 1.5012682676
    endloop
  endfacet
  facet normal -0.0044100375 0.9999889890 0.0016041771
    outer loop
      vertex 0.5282760262 2.3848774433 0.9381998777
      vertex 0.2772840261 2.3852756023 0.0000000000
      vertex 0.2781610489 2.3837740421 0.9384321570
    endloop
  endfacet
  facet normal -0.0044115283 0.9999889818 0.0016045759
    outer loop
      vertex 0.5273989439 2.3863790035 0.0000000000
      vertex 0.2772840261 2.3852756023 0.0000000000
      vertex 0.5282760262 2.3848774433 0.9381998777
    endloop
  endfacet
  facet normal -0.0044123296 0.9999889781 0.0016046826
    outer loop
      vertex 0.2005263120 2.3825283051 1.5012682676
      vertex 0.2781610489 2.3837740421 0.9384321570
      vertex 0.2000001222 2.3834290504 0.9385045171
    endloop
  endfacet
  facet normal -0.0044097439 0.9999889889 0.0016050393
    outer loop
      vertex 0.6069631577 2.3843212128 1.5008909702
      vertex 0.2781610489 2.3837740421 0.9384321570
      vertex 0.2005263120 2.3825283051 1.5012682676
    endloop
  endfacet
  facet normal -0.0044100365 0.9999889874 0.0016052103
    outer loop
      vertex 0.6069631577 2.3843212128 1.5008909702
      vertex 0.5282760262 2.3848774433 0.9381998777
      vertex 0.2781610489 2.3837740421 0.9384321570
    endloop
  endfacet
  facet normal -0.0044123267 0.9999889768 0.0016055306
    outer loop
      vertex 0.6064369678 2.3852224350 0.9381274581
      vertex 0.5282760262 2.3848774433 0.9381998777
      vertex 0.6069631577 2.3843212128 1.5008909702
    endloop
  endfacet
  facet normal -0.9999898378 -0.0044117193 0.0009279094
    outer loop
      vertex 0.2005263120 2.3825283051 1.5012682676
      vertex 0.2007171363 2.2208547592 0.9382435083
      vertex 0.2012433112 2.2199535370 1.5010070801
    endloop
  endfacet
  facet normal -0.9999898373 -0.0044118229 0.0009279392
    outer loop
      vertex 0.2000001222 2.3834290504 0.9385045171
      vertex 0.2007171363 2.2208547592 0.9382435083
      vertex 0.2005263120 2.3825283051 1.5012682676
    endloop
  endfacet
  facet normal 0.0044100381 -0.9999889877 -0.0016050203
    outer loop
      vertex 0.2788780332 2.2211995125 0.9381712079
      vertex 0.5281159878 2.2238044739 0.0000000000
      vertex 0.5289929509 2.2223029137 0.9379389882
    endloop
  endfacet
  facet normal 0.0044115272 -0.9999889817 -0.0016046247
    outer loop
      vertex 0.2780010104 2.2227010727 0.0000000000
      vertex 0.5281159878 2.2238044739 0.0000000000
      vertex 0.2788780332 2.2211995125 0.9381712079
    endloop
  endfacet
  facet normal 0.0044092739 -0.9999889916 -0.0016046806
    outer loop
      vertex 0.6076801419 2.2217469215 1.5006300211
      vertex 0.5289929509 2.2223029137 0.9379389882
      vertex 0.6071539521 2.2226476669 0.9378665686
    endloop
  endfacet
  facet normal 0.0044109183 -0.9999889840 -0.0016049105
    outer loop
      vertex 0.2012433112 2.2199535370 1.5010070801
      vertex 0.5289929509 2.2223029137 0.9379389882
      vertex 0.6076801419 2.2217469215 1.5006300211
    endloop
  endfacet
  facet normal 0.0044100377 -0.9999889870 -0.0016054231
    outer loop
      vertex 0.2012433112 2.2199535370 1.5010070801
      vertex 0.2788780332 2.2211995125 0.9381712079
      vertex 0.5289929509 2.2223029137 0.9379389882
    endloop
  endfacet
  facet normal 0.0044092814 -0.9999889902 -0.0016055274
    outer loop
      vertex 0.2007171363 2.2208547592 0.9382435083
      vertex 0.2788780332 2.2211995125 0.9381712079
      vertex 0.2012433112 2.2199535370 1.5010070801
    endloop
  endfacet
  facet normal 0.9999898381 0.0044116393 -0.0009279361
    outer loop
      vertex 0.6076801419 2.2217469215 1.5006300211
      vertex 0.6064369678 2.3852224350 0.9381274581
      vertex 0.6069631577 2.3843212128 1.5008909702
    endloop
  endfacet
  facet normal 0.9999898382 0.0044116260 -0.0009279400
    outer loop
      vertex 0.6071539521 2.2226476669 0.9378665686
      vertex 0.6064369678 2.3852224350 0.9381274581
      vertex 0.6076801419 2.2217469215 1.5006300211
    endloop
  endfacet
  facet normal 0.9999898366 0.0044117655 -0.0009289944
    outer loop
      vertex 0.4289216995 2.3460178375 1.5009962320
      vertex 0.4292405248 2.2803127766 1.5321553946
      vertex 0.4292112589 2.2803628445 1.5008907318
    endloop
  endfacet
  facet normal 0.9999898355 0.0044122128 -0.0009280510
    outer loop
      vertex 0.4289509356 2.3459677696 1.5322605371
      vertex 0.4292405248 2.2803127766 1.5321553946
      vertex 0.4289216995 2.3460178375 1.5009962320
    endloop
  endfacet
  facet normal -0.9999898374 -0.0044117783 0.0009280411
    outer loop
      vertex 0.3791882396 2.2801423073 1.5009371042
      vertex 0.3789279163 2.3457469940 1.5323071480
      vertex 0.3788986802 2.3457970619 1.5010424852
    endloop
  endfacet
  facet normal -0.9999898345 -0.0044122354 0.0009289971
    outer loop
      vertex 0.3792175055 2.2800922394 1.5322016478
      vertex 0.3789279163 2.3457469940 1.5323071480
      vertex 0.3791882396 2.2801423073 1.5009371042
    endloop
  endfacet
  facet normal 0.0044071771 -0.9999889995 -0.0016055354
    outer loop
      vertex 0.4292112589 2.2803628445 1.5008907318
      vertex 0.3792175055 2.2800922394 1.5322016478
      vertex 0.3791882396 2.2801423073 1.5009371042
    endloop
  endfacet
  facet normal 0.0044071810 -0.9999889995 -0.0016055293
    outer loop
      vertex 0.4292405248 2.2803127766 1.5321553946
      vertex 0.3792175055 2.2800922394 1.5322016478
      vertex 0.4292112589 2.2803628445 1.5008907318
    endloop
  endfacet
  facet normal -0.0044119470 0.9999889784 0.0016055478
    outer loop
      vertex 0.3788986802 2.3457970619 1.5010424852
      vertex 0.4289509356 2.3459677696 1.5322605371
      vertex 0.4289216995 2.3460178375 1.5009962320
    endloop
  endfacet
  facet normal -0.0044119355 0.9999889785 0.0016055295
    outer loop
      vertex 0.3789279163 2.3457469940 1.5323071480
      vertex 0.4289509356 2.3459677696 1.5322605371
      vertex 0.3788986802 2.3457970619 1.5010424852
    endloop
  endfacet
endsolid PASSENGER5
solid PASSENGER6
  facet normal -0.0044119417 -0.9999889784 -0.0016055436
    outer loop
      vertex 1.1711013317 2.3457970619 1.5010424852
      vertex 1.1210490465 2.3459677696 1.5322605371
      vertex 1.1210782528 2.3460178375 1.5009962320
    endloop
  endfacet
  facet normal -0.0044119408 -0.9999889784 -0.0016055421
    outer loop
      vertex 1.1710720062 2.3457469940 1.5323071480
      vertex 1.1210490465 2.3459677696 1.5322605371
      vertex 1.1711013317 2.3457970619 1.5010424852
    endloop
  endfacet
  facet normal 0.0044071824 0.9999889995 0.0016055270
    outer loop
      vertex 1.1207886934 2.2803628445 1.5008907318
      vertex 1.1707824469 2.2800922394 1.5322016478
      vertex 1.1708116531 2.2801423073 1.5009371042
    endloop
  endfacet
  facet normal 0.0044071862 0.9999889994 0.0016055209
    outer loop
      vertex 1.1207594872 2.2803127766 1.5321553946
      vertex 1.1707824469 2.2800922394 1.5322016478
      vertex 1.1207886934 2.2803628445 1.5008907318
    endloop
  endfacet
  facet normal -0.9999898267 0.0044135985 -0.0009308978
    outer loop
      vertex 1.1708116531 2.2801423073 1.5009371042
      vertex 1.1710720062 2.3457469940 1.5323071480
      vertex 1.1711013317 2.3457970619 1.5010424852
    endloop
  endfacet
  facet normal -0.9999898383 0.0044117784 -0.0009270914
    outer loop
      vertex 1.1707824469 2.2800922394 1.5322016478
      vertex 1.1710720062 2.3457469940 1.5323071480
      vertex 1.1708116531 2.2801423073 1.5009371042
    endloop
  endfacet
  facet normal 0.9999898384 -0.0044117624 0.0009270879
    outer loop
      vertex 1.1210782528 2.3460178375 1.5009962320
      vertex 1.1207594872 2.2803127766 1.5321553946
      vertex 1.1207886934 2.2803628445 1.5008907318
    endloop
  endfacet
  facet normal 0.9999898384 -0.0044117574 0.0009270985
    outer loop
      vertex 1.1210490465 2.3459677696 1.5322605371
      vertex 1.1207594872 2.2803127766 1.5321553946
      vertex 1.1210782528 2.3460178375 1.5009962320
    endloop
  endfacet
  facet normal 0.9999898381 -0.0044116393 0.0009279361
    outer loop
      vertex 0.9423198104 2.2217469215 1.5006300211
      vertex 0.9435629845 2.3852224350 0.9381274581
      vertex 0.9430367947 2.3843212128 1.5008909702
    endloop
  endfacet
  facet normal 0.9999898382 -0.0044116260 0.0009279400
    outer loop
      vertex 0.9428460002 2.2226476669 0.9378665686
      vertex 0.9435629845 2.3852224350 0.9381274581
      vertex 0.9423198104 2.2217469215 1.5006300211
    endloop
  endfacet
  facet normal 0.0044100381 0.9999889877 0.0016050200
    outer loop
      vertex 1.2711219788 2.2211995125 0.9381712079
      vertex 1.0218839645 2.2238044739 0.0000000000
      vertex 1.0210070610 2.2223029137 0.9379389882
    endloop
  endfacet
  facet normal 0.0044115283 0.9999889817 0.0016046241
    outer loop
      vertex 1.2719988823 2.2227010727 0.0000000000
      vertex 1.0218839645 2.2238044739 0.0000000000
      vertex 1.2711219788 2.2211995125 0.9381712079
    endloop
  endfacet
  facet normal 0.0044092705 0.9999889916 0.0016046806
    outer loop
      vertex 0.9423198104 2.2217469215 1.5006300211
      vertex 1.0210070610 2.2223029137 0.9379389882
      vertex 0.9428460002 2.2226476669 0.9378665686
    endloop
  endfacet
  facet normal 0.0044109180 0.9999889840 0.0016049110
    outer loop
      vertex 1.3487566710 2.2199535370 1.5010070801
      vertex 1.0210070610 2.2223029137 0.9379389882
      vertex 0.9423198104 2.2217469215 1.5006300211
    endloop
  endfacet
  facet normal 0.0044100377 0.9999889870 0.0016054234
    outer loop
      vertex 1.3487566710 2.2199535370 1.5010070801
      vertex 1.2711219788 2.2211995125 0.9381712079
      vertex 1.0210070610 2.2223029137 0.9379389882
    endloop
  endfacet
  facet normal 0.0044092890 0.9999889902 0.0016055266
    outer loop
      vertex 1.3492827415 2.2208547592 0.9382435083
      vertex 1.2711219788 2.2211995125 0.9381712079
      vertex 1.3487566710 2.2199535370 1.5010070801
    endloop
  endfacet
  facet normal -0.9999898368 0.0044119940 -0.0009277236
    outer loop
      vertex 1.3494737148 2.3825283051 1.5012682676
      vertex 1.3492827415 2.2208547592 0.9382435083
      vertex 1.3487566710 2.2199535370 1.5010070801
    endloop
  endfacet
  facet normal -0.9999898333 0.0044127395 -0.0009279377
    outer loop
      vertex 1.3499999046 2.3834290504 0.9385045171
      vertex 1.3492827415 2.2208547592 0.9382435083
      vertex 1.3494737148 2.3825283051 1.5012682676
    endloop
  endfacet
  facet normal -0.0044100385 -0.9999889890 -0.0016041777
    outer loop
      vertex 1.0217239857 2.3848774433 0.9381998777
      vertex 1.2727160454 2.3852756023 0.0000000000
      vertex 1.2718389034 2.3837740421 0.9384321570
    endloop
  endfacet
  facet normal -0.0044115262 -0.9999889818 -0.0016045756
    outer loop
      vertex 1.0226010084 2.3863790035 0.0000000000
      vertex 1.2727160454 2.3852756023 0.0000000000
      vertex 1.0217239857 2.3848774433 0.9381998777
    endloop
  endfacet
  facet normal -0.0044123253 -0.9999889781 -0.0016046826
    outer loop
      vertex 1.3494737148 2.3825283051 1.5012682676
      vertex 1.2718389034 2.3837740421 0.9384321570
      vertex 1.3499999046 2.3834290504 0.9385045171
    endloop
  endfacet
  facet normal -0.0044097431 -0.9999889889 -0.0016050388
    outer loop
      vertex 0.9430367947 2.3843212128 1.5008909702
      vertex 1.2718389034 2.3837740421 0.9384321570
      vertex 1.3494737148 2.3825283051 1.5012682676
    endloop
  endfacet
  facet normal -0.0044100375 -0.9999889874 -0.0016052109
    outer loop
      vertex 0.9430367947 2.3843212128 1.5008909702
      vertex 1.0217239857 2.3848774433 0.9381998777
      vertex 1.2718389034 2.3837740421 0.9384321570
    endloop
  endfacet
  facet normal -0.0044123233 -0.9999889768 -0.0016055306
    outer loop
      vertex 0.9435629845 2.3852224350 0.9381274581
      vertex 1.0217239857 2.3848774433 0.9381998777
      vertex 0.9430367947 2.3843212128 1.5008909702
    endloop
  endfacet
  facet normal 0.0009352591 0.0016024411 -0.9999982787
    outer loop
      vertex 1.3487566710 2.2199535370 1.5010070801
      vertex 1.1708116531 2.2801423073 1.5009371042
      vertex 1.3494737148 2.3825283051 1.5012682676
    endloop
  endfacet
  facet normal 0.0009347813 0.0016010287 -0.9999982814
    outer loop
      vertex 0.9423198104 2.2217469215 1.5006300211
      vertex 1.1708116531 2.2801423073 1.5009371042
      vertex 1.3487566710 2.2199535370 1.5010070801
    endloop
  endfacet
  facet normal 0.0009340914 0.0016037284 -0.9999982778
    outer loop
      vertex 0.9423198104 2.2217469215 1.5006300211
      vertex 1.1207886934 2.2803628445 1.5008907318
      vertex 1.1708116531 2.2801423073 1.5009371042
    endloop
  endfacet
  facet normal 0.0009349938 0.0016009807 -0.9999982813
    outer loop
      vertex 0.9430367947 2.3843212128 1.5008909702
      vertex 1.1207886934 2.2803628445 1.5008907318
      vertex 0.9423198104 2.2217469215 1.5006300211
    endloop
  endfacet
  facet normal 0.0009360327 0.0016027570 -0.9999982775
    outer loop
      vertex 0.9430367947 2.3843212128 1.5008909702
      vertex 1.1210782528 2.3460178375 1.5009962320
      vertex 1.1207886934 2.2803628445 1.5008907318
    endloop
  endfacet
  facet normal 0.0009353598 0.0015996291 -0.9999982831
    outer loop
      vertex 1.3494737148 2.3825283051 1.5012682676
      vertex 1.1210782528 2.3460178375 1.5009962320
      vertex 0.9430367947 2.3843212128 1.5008909702
    endloop
  endfacet
  facet normal 0.0009317940 0.0016219346 -0.9999982505
    outer loop
      vertex 1.3494737148 2.3825283051 1.5012682676
      vertex 1.1711013317 2.3457970619 1.5010424852
      vertex 1.1210782528 2.3460178375 1.5009962320
    endloop
  endfacet
  facet normal 0.0009361163 0.0016009451 -0.9999982803
    outer loop
      vertex 1.1708116531 2.2801423073 1.5009371042
      vertex 1.1711013317 2.3457970619 1.5010424852
      vertex 1.3494737148 2.3825283051 1.5012682676
    endloop
  endfacet
  facet normal -0.0009336022 -0.0016006156 0.9999982832
    outer loop
      vertex 1.0210070610 2.2223029137 0.9379389882
      vertex 0.9435629845 2.3852224350 0.9381274581
      vertex 0.9428460002 2.2226476669 0.9378665686
    endloop
  endfacet
  facet normal -0.0009336078 -0.0016006182 0.9999982832
    outer loop
      vertex 1.0217239857 2.3848774433 0.9381998777
      vertex 0.9435629845 2.3852224350 0.9381274581
      vertex 1.0210070610 2.2223029137 0.9379389882
    endloop
  endfacet
  facet normal -0.0009328485 -0.0016013558 0.9999982827
    outer loop
      vertex 1.2718389034 2.3837740421 0.9384321570
      vertex 1.3492827415 2.2208547592 0.9382435083
      vertex 1.3499999046 2.3834290504 0.9385045171
    endloop
  endfacet
  facet normal -0.0009320822 -0.0016009916 0.9999982840
    outer loop
      vertex 1.2711219788 2.2211995125 0.9381712079
      vertex 1.3492827415 2.2208547592 0.9382435083
      vertex 1.2718389034 2.3837740421 0.9384321570
    endloop
  endfacet
  facet normal 0.9999898400 -0.0044112655 0.0009277235
    outer loop
      vertex 1.0210070610 2.2223029137 0.9379389882
      vertex 1.0226010084 2.3863790035 0.0000000000
      vertex 1.0217239857 2.3848774433 0.9381998777
    endloop
  endfacet
  facet normal 0.9999898432 -0.0044105100 0.0009278556
    outer loop
      vertex 1.0218839645 2.2238044739 0.0000000000
      vertex 1.0226010084 2.3863790035 0.0000000000
      vertex 1.0210070610 2.2223029137 0.9379389882
    endloop
  endfacet
  facet normal -0.9999898401 0.0044112657 -0.0009276248
    outer loop
      vertex 1.2718389034 2.3837740421 0.9384321570
      vertex 1.2719988823 2.2227010727 0.0000000000
      vertex 1.2711219788 2.2211995125 0.9381712079
    endloop
  endfacet
  facet normal -0.9999898402 0.0044112433 -0.0009276209
    outer loop
      vertex 1.2727160454 2.3852756023 0.0000000000
      vertex 1.2719988823 2.2227010727 0.0000000000
      vertex 1.2718389034 2.3837740421 0.9384321570
    endloop
  endfacet
endsolid PASSENGER6
solid PASSENGER3
  facet normal -0.9999898384 -0.0044116293 0.0009277512
    outer loop
      vertex 0.2781610489 1.3837740421 0.9384321570
      vertex 0.2780010104 1.2227009535 0.0000000000
      vertex 0.2788780332 1.2211993933 0.9381712079
    endloop
  endfacet
  facet normal -0.9999898452 -0.0044101402 0.0009274957
    outer loop
      vertex 0.2772840261 1.3852756023 0.0000000000
      vertex 0.2780010104 1.2227009535 0.0000000000
      vertex 0.2781610489 1.3837740421 0.9384321570
    endloop
  endfacet
  facet normal 0.9999898399 0.0044112656 -0.0009277870
    outer loop
      vertex 0.5289929509 1.2223029137 0.9379389882
      vertex 0.5273989439 1.3863790035 0.0000000000
      vertex 0.5282760262 1.3848774433 0.9381998777
    endloop
  endfacet
  facet normal 0.9999898431 0.0044105100 -0.0009279192
    outer loop
      vertex 0.5281159878 1.2238044739 0.0000000000
      vertex 0.5273989439 1.3863790035 0.0000000000
      vertex 0.5289929509 1.2223029137 0.9379389882
    endloop
  endfacet
  facet normal -0.0009328469 0.0016013543 -0.9999982827
    outer loop
      vertex 0.2781610489 1.3837740421 0.9384321570
      vertex 0.2007171363 1.2208546400 0.9382435083
      vertex 0.2000001222 1.3834291697 0.9385045171
    endloop
  endfacet
  facet normal -0.0009320806 0.0016009901 -0.9999982840
    outer loop
      vertex 0.2788780332 1.2211993933 0.9381712079
      vertex 0.2007171363 1.2208546400 0.9382435083
      vertex 0.2781610489 1.3837740421 0.9384321570
    endloop
  endfacet
  facet normal -0.0009336053 0.0016006179 -0.9999982832
    outer loop
      vertex 0.5289929509 1.2223029137 0.9379389882
      vertex 0.6064369678 1.3852223158 0.9381274581
      vertex 0.6071539521 1.2226477861 0.9378665686
    endloop
  endfacet
  facet normal -0.0009336061 0.0016006182 -0.9999982832
    outer loop
      vertex 0.5282760262 1.3848774433 0.9381998777
      vertex 0.6064369678 1.3852223158 0.9381274581
      vertex 0.5289929509 1.2223029137 0.9379389882
    endloop
  endfacet
  facet normal 0.0009352579 -0.0016024425 0.9999982787
    outer loop
      vertex 0.2012433112 1.2199536562 1.5010070801
      vertex 0.3791882396 1.2801421881 1.5009371042
      vertex 0.2005263120 1.3825283051 1.5012682676
    endloop
  endfacet
  facet normal 0.0009347805 -0.0016010311 0.9999982814
    outer loop
      vertex 0.6076801419 1.2217468023 1.5006300211
      vertex 0.3791882396 1.2801421881 1.5009371042
      vertex 0.2012433112 1.2199536562 1.5010070801
    endloop
  endfacet
  facet normal 0.0009340940 -0.0016037171 0.9999982778
    outer loop
      vertex 0.6076801419 1.2217468023 1.5006300211
      vertex 0.4292112589 1.2803628445 1.5008907318
      vertex 0.3791882396 1.2801421881 1.5009371042
    endloop
  endfacet
  facet normal 0.0009349935 -0.0016009784 0.9999982813
    outer loop
      vertex 0.6069631577 1.3843213320 1.5008909702
      vertex 0.4292112589 1.2803628445 1.5008907318
      vertex 0.6076801419 1.2217468023 1.5006300211
    endloop
  endfacet
  facet normal 0.0009360321 -0.0016027541 0.9999982775
    outer loop
      vertex 0.6069631577 1.3843213320 1.5008909702
      vertex 0.4289216995 1.3460179567 1.5009962320
      vertex 0.4292112589 1.2803628445 1.5008907318
    endloop
  endfacet
  facet normal 0.0009353604 -0.0015996321 0.9999982831
    outer loop
      vertex 0.2005263120 1.3825283051 1.5012682676
      vertex 0.4289216995 1.3460179567 1.5009962320
      vertex 0.6069631577 1.3843213320 1.5008909702
    endloop
  endfacet
  facet normal 0.0009317952 -0.0016219349 0.9999982505
    outer loop
      vertex 0.2005263120 1.3825283051 1.5012682676
      vertex 0.3788986802 1.3457971811 1.5010424852
      vertex 0.4289216995 1.3460179567 1.5009962320
    endloop
  endfacet
  facet normal 0.0009361183 -0.0016009410 0.9999982803
    outer loop
      vertex 0.3791882396 1.2801421881 1.5009371042
      vertex 0.3788986802 1.3457971811 1.5010424852
      vertex 0.2005263120 1.3825283051 1.5012682676
    endloop
  endfacet
  facet normal -0.0044100375 0.9999889890 0.0016041771
    outer loop
      vertex 0.5282760262 1.3848774433 0.9381998777
      vertex 0.2772840261 1.3852756023 0.0000000000
      vertex 0.2781610489 1.3837740421 0.9384321570
    endloop
  endfacet
  facet normal -0.0044115283 0.9999889818 0.0016045759
    outer loop
      vertex 0.5273989439 1.3863790035 0.0000000000
      vertex 0.2772840261 1.3852756023 0.0000000000
      vertex 0.5282760262 1.3848774433 0.9381998777
    endloop
  endfacet
  facet normal -0.0044108042 0.9999889845 0.0016048930
    outer loop
      vertex 0.2005263120 1.3825283051 1.5012682676
      vertex 0.2781610489 1.3837740421 0.9384321570
      vertex 0.2000001222 1.3834291697 0.9385045171
    endloop
  endfacet
  facet normal -0.0044100372 0.9999889877 0.0016049988
    outer loop
      vertex 0.6069631577 1.3843213320 1.5008909702
      vertex 0.2781610489 1.3837740421 0.9384321570
      vertex 0.2005263120 1.3825283051 1.5012682676
    endloop
  endfacet
  facet normal -0.0044100367 0.9999889877 0.0016049985
    outer loop
      vertex 0.6069631577 1.3843213320 1.5008909702
      vertex 0.5282760262 1.3848774433 0.9381998777
      vertex 0.2781610489 1.3837740421 0.9384321570
    endloop
  endfacet
  facet normal -0.0044108020 0.9999889842 0.0016051055
    outer loop
      vertex 0.6064369678 1.3852223158 0.9381274581
      vertex 0.5282760262 1.3848774433 0.9381998777
      vertex 0.6069631577 1.3843213320 1.5008909702
    endloop
  endfacet
  facet normal -0.9999898378 -0.0044117226 0.0009279113
    outer loop
      vertex 0.2005263120 1.3825283051 1.5012682676
      vertex 0.2007171363 1.2208546400 0.9382435083
      vertex 0.2012433112 1.2199536562 1.5010070801
    endloop
  endfacet
  facet normal -0.9999898374 -0.0044118165 0.0009279382
    outer loop
      vertex 0.2000001222 1.3834291697 0.9385045171
      vertex 0.2007171363 1.2208546400 0.9382435083
      vertex 0.2005263120 1.3825283051 1.5012682676
    endloop
  endfacet
  facet normal 0.0044105147 -0.9999889856 -0.0016050207
    outer loop
      vertex 0.2788780332 1.2211993933 0.9381712079
      vertex 0.5281159878 1.2238044739 0.0000000000
      vertex 0.5289929509 1.2223029137 0.9379389882
    endloop
  endfacet
  facet normal 0.0044120038 -0.9999889796 -0.0016046251
    outer loop
      vertex 0.2780010104 1.2227009535 0.0000000000
      vertex 0.5281159878 1.2238044739 0.0000000000
      vertex 0.2788780332 1.2211993933 0.9381712079
    endloop
  endfacet
  facet normal 0.0044107986 -0.9999889842 -0.0016051057
    outer loop
      vertex 0.6076801419 1.2217468023 1.5006300211
      vertex 0.5289929509 1.2223029137 0.9379389882
      vertex 0.6071539521 1.2226477861 0.9378665686
    endloop
  endfacet
  facet normal 0.0044103316 -0.9999889863 -0.0016050404
    outer loop
      vertex 0.2012433112 1.2199536562 1.5010070801
      vertex 0.5289929509 1.2223029137 0.9379389882
      vertex 0.6076801419 1.2217468023 1.5006300211
    endloop
  endfacet
  facet normal 0.0044105148 -0.9999889857 -0.0016049337
    outer loop
      vertex 0.2012433112 1.2199536562 1.5010070801
      vertex 0.2788780332 1.2211993933 0.9381712079
      vertex 0.5289929509 1.2223029137 0.9379389882
    endloop
  endfacet
  facet normal 0.0044092818 -0.9999889909 -0.0016051038
    outer loop
      vertex 0.2007171363 1.2208546400 0.9382435083
      vertex 0.2788780332 1.2211993933 0.9381712079
      vertex 0.2012433112 1.2199536562 1.5010070801
    endloop
  endfacet
  facet normal 0.9999898382 0.0044116328 -0.0009279380
    outer loop
      vertex 0.6076801419 1.2217468023 1.5006300211
      vertex 0.6064369678 1.3852223158 0.9381274581
      vertex 0.6069631577 1.3843213320 1.5008909702
    endloop
  endfacet
  facet normal 0.9999898382 0.0044116325 -0.0009279381
    outer loop
      vertex 0.6071539521 1.2226477861 0.9378665686
      vertex 0.6064369678 1.3852223158 0.9381274581
      vertex 0.6076801419 1.2217468023 1.5006300211
    endloop
  endfacet
  facet normal 0.9999898366 0.0044117574 -0.0009289944
    outer loop
      vertex 0.4289216995 1.3460179567 1.5009962320
      vertex 0.4292405248 1.2803127766 1.5321553946
      vertex 0.4292112589 1.2803628445 1.5008907318
    endloop
  endfacet
  facet normal 0.9999898355 0.0044122048 -0.0009280511
    outer loop
      vertex 0.4289509356 1.3459678888 1.5322605371
      vertex 0.4292405248 1.2803127766 1.5321553946
      vertex 0.4289216995 1.3460179567 1.5009962320
    endloop
  endfacet
  facet normal -0.9999898375 -0.0044117622 0.0009280411
    outer loop
      vertex 0.3791882396 1.2801421881 1.5009371042
      vertex 0.3789279163 1.3457471132 1.5323071480
      vertex 0.3788986802 1.3457971811 1.5010424852
    endloop
  endfacet
  facet normal -0.9999898346 -0.0044122194 0.0009289972
    outer loop
      vertex 0.3792175055 1.2800921202 1.5322016478
      vertex 0.3789279163 1.3457471132 1.5323071480
      vertex 0.3791882396 1.2801421881 1.5009371042
    endloop
  endfacet
  facet normal 0.0044095602 -0.9999889890 -0.0016055376
    outer loop
      vertex 0.4292112589 1.2803628445 1.5008907318
      vertex 0.3792175055 1.2800921202 1.5322016478
      vertex 0.3791882396 1.2801421881 1.5009371042
    endloop
  endfacet
  facet normal 0.0044095640 -0.9999889889 -0.0016055315
    outer loop
      vertex 0.4292405248 1.2803127766 1.5321553946
      vertex 0.3792175055 1.2800921202 1.5322016478
      vertex 0.4292112589 1.2803628445 1.5008907318
    endloop
  endfacet
  facet normal -0.0044119470 0.9999889784 0.0016055478
    outer loop
      vertex 0.3788986802 1.3457971811 1.5010424852
      vertex 0.4289509356 1.3459678888 1.5322605371
      vertex 0.4289216995 1.3460179567 1.5009962320
    endloop
  endfacet
  facet normal -0.0044119355 0.9999889785 0.0016055295
    outer loop
      vertex 0.3789279163 1.3457471132 1.5323071480
      vertex 0.4289509356 1.3459678888 1.5322605371
      vertex 0.3788986802 1.3457971811 1.5010424852
    endloop
  endfacet
endsolid PASSENGER3
solid PASSENGER4
  facet normal -0.0044119417 -0.9999889784 -0.0016055436
    outer loop
      vertex 1.1711013317 1.3457971811 1.5010424852
      vertex 1.1210490465 1.3459678888 1.5322605371
      vertex 1.1210782528 1.3460179567 1.5009962320
    endloop
  endfacet
  facet normal -0.0044119408 -0.9999889784 -0.0016055421
    outer loop
      vertex 1.1710720062 1.3457471132 1.5323071480
      vertex 1.1210490465 1.3459678888 1.5322605371
      vertex 1.1711013317 1.3457971811 1.5010424852
    endloop
  endfacet
  facet normal 0.0044095654 0.9999889889 0.0016055292
    outer loop
      vertex 1.1207886934 1.2803628445 1.5008907318
      vertex 1.1707824469 1.2800921202 1.5322016478
      vertex 1.1708116531 1.2801421881 1.5009371042
    endloop
  endfacet
  facet normal 0.0044095692 0.9999889889 0.0016055231
    outer loop
      vertex 1.1207594872 1.2803127766 1.5321553946
      vertex 1.1707824469 1.2800921202 1.5322016478
      vertex 1.1207886934 1.2803628445 1.5008907318
    endloop
  endfacet
  facet normal -0.9999898268 0.0044135825 -0.0009308979
    outer loop
      vertex 1.1708116531 1.2801421881 1.5009371042
      vertex 1.1710720062 1.3457471132 1.5323071480
      vertex 1.1711013317 1.3457971811 1.5010424852
    endloop
  endfacet
  facet normal -0.9999898384 0.0044117624 -0.0009270915
    outer loop
      vertex 1.1707824469 1.2800921202 1.5322016478
      vertex 1.1710720062 1.3457471132 1.5323071480
      vertex 1.1708116531 1.2801421881 1.5009371042
    endloop
  endfacet
  facet normal 0.9999898384 -0.0044117544 0.0009270879
    outer loop
      vertex 1.1210782528 1.3460179567 1.5009962320
      vertex 1.1207594872 1.2803127766 1.5321553946
      vertex 1.1207886934 1.2803628445 1.5008907318
    endloop
  endfacet
  facet normal 0.9999898384 -0.0044117494 0.0009270986
    outer loop
      vertex 1.1210490465 1.3459678888 1.5322605371
      vertex 1.1207594872 1.2803127766 1.5321553946
      vertex 1.1210782528 1.3460179567 1.5009962320
    endloop
  endfacet
  facet normal 0.9999898382 -0.0044116328 0.0009279380
    outer loop
      vertex 0.9423198104 1.2217468023 1.5006300211
      vertex 0.9435629845 1.3852223158 0.9381274581
      vertex 0.9430367947 1.3843213320 1.5008909702
    endloop
  endfacet
  facet normal 0.9999898382 -0.0044116325 0.0009279381
    outer loop
      vertex 0.9428460002 1.2226477861 0.9378665686
      vertex 0.9435629845 1.3852223158 0.9381274581
      vertex 0.9423198104 1.2217468023 1.5006300211
    endloop
  endfacet
  facet normal 0.0044105147 0.9999889856 0.0016050205
    outer loop
      vertex 1.2711219788 1.2211993933 0.9381712079
      vertex 1.0218839645 1.2238044739 0.0000000000
      vertex 1.0210070610 1.2223029137 0.9379389882
    endloop
  endfacet
  facet normal 0.0044120049 0.9999889796 0.0016046246
    outer loop
      vertex 1.2719988823 1.2227009535 0.0000000000
      vertex 1.0218839645 1.2238044739 0.0000000000
      vertex 1.2711219788 1.2211993933 0.9381712079
    endloop
  endfacet
  facet normal 0.0044107952 0.9999889842 0.0016051057
    outer loop
      vertex 0.9423198104 1.2217468023 1.5006300211
      vertex 1.0210070610 1.2223029137 0.9379389882
      vertex 0.9428460002 1.2226477861 0.9378665686
    endloop
  endfacet
  facet normal 0.0044103313 0.9999889864 0.0016050408
    outer loop
      vertex 1.3487566710 1.2199536562 1.5010070801
      vertex 1.0210070610 1.2223029137 0.9379389882
      vertex 0.9423198104 1.2217468023 1.5006300211
    endloop
  endfacet
  facet normal 0.0044105148 0.9999889857 0.0016049339
    outer loop
      vertex 1.3487566710 1.2199536562 1.5010070801
      vertex 1.2711219788 1.2211993933 0.9381712079
      vertex 1.0210070610 1.2223029137 0.9379389882
    endloop
  endfacet
  facet normal 0.0044092894 0.9999889908 0.0016051030
    outer loop
      vertex 1.3492827415 1.2208546400 0.9382435083
      vertex 1.2711219788 1.2211993933 0.9381712079
      vertex 1.3487566710 1.2199536562 1.5010070801
    endloop
  endfacet
  facet normal -0.9999898368 0.0044119972 -0.0009277255
    outer loop
      vertex 1.3494737148 1.3825283051 1.5012682676
      vertex 1.3492827415 1.2208546400 0.9382435083
      vertex 1.3487566710 1.2199536562 1.5010070801
    endloop
  endfacet
  facet normal -0.9999898333 0.0044127330 -0.0009279368
    outer loop
      vertex 1.3499999046 1.3834291697 0.9385045171
      vertex 1.3492827415 1.2208546400 0.9382435083
      vertex 1.3494737148 1.3825283051 1.5012682676
    endloop
  endfacet
  facet normal -0.0044100385 -0.9999889890 -0.0016041777
    outer loop
      vertex 1.0217239857 1.3848774433 0.9381998777
      vertex 1.2727160454 1.3852756023 0.0000000000
      vertex 1.2718389034 1.3837740421 0.9384321570
    endloop
  endfacet
  facet normal -0.0044115262 -0.9999889818 -0.0016045756
    outer loop
      vertex 1.0226010084 1.3863790035 0.0000000000
      vertex 1.2727160454 1.3852756023 0.0000000000
      vertex 1.0217239857 1.3848774433 0.9381998777
    endloop
  endfacet
  facet normal -0.0044108000 -0.9999889845 -0.0016048930
    outer loop
      vertex 1.3494737148 1.3825283051 1.5012682676
      vertex 1.2718389034 1.3837740421 0.9384321570
      vertex 1.3499999046 1.3834291697 0.9385045171
    endloop
  endfacet
  facet normal -0.0044100364 -0.9999889877 -0.0016049983
    outer loop
      vertex 0.9430367947 1.3843213320 1.5008909702
      vertex 1.2718389034 1.3837740421 0.9384321570
      vertex 1.3494737148 1.3825283051 1.5012682676
    endloop
  endfacet
  facet normal -0.0044100377 -0.9999889877 -0.0016049991
    outer loop
      vertex 0.9430367947 1.3843213320 1.5008909702
      vertex 1.0217239857 1.3848774433 0.9381998777
      vertex 1.2718389034 1.3837740421 0.9384321570
    endloop
  endfacet
  facet normal -0.0044107986 -0.9999889842 -0.0016051055
    outer loop
      vertex 0.9435629845 1.3852223158 0.9381274581
      vertex 1.0217239857 1.3848774433 0.9381998777
      vertex 0.9430367947 1.3843213320 1.5008909702
    endloop
  endfacet
  facet normal 0.0009352573 0.0016024422 -0.9999982787
    outer loop
      vertex 1.3487566710 1.2199536562 1.5010070801
      vertex 1.1708116531 1.2801421881 1.5009371042
      vertex 1.3494737148 1.3825283051 1.5012682676
    endloop
  endfacet
  facet normal 0.0009347804 0.0016010323 -0.9999982814
    outer loop
      vertex 0.9423198104 1.2217468023 1.5006300211
      vertex 1.1708116531 1.2801421881 1.5009371042
      vertex 1.3487566710 1.2199536562 1.5010070801
    endloop
  endfacet
  facet normal 0.0009340951 0.0016037137 -0.9999982778
    outer loop
      vertex 0.9423198104 1.2217468023 1.5006300211
      vertex 1.1207886934 1.2803628445 1.5008907318
      vertex 1.1708116531 1.2801421881 1.5009371042
    endloop
  endfacet
  facet normal 0.0009349935 0.0016009784 -0.9999982813
    outer loop
      vertex 0.9430367947 1.3843213320 1.5008909702
      vertex 1.1207886934 1.2803628445 1.5008907318
      vertex 0.9423198104 1.2217468023 1.5006300211
    endloop
  endfacet
  facet normal 0.0009360321 0.0016027541 -0.9999982775
    outer loop
      vertex 0.9430367947 1.3843213320 1.5008909702
      vertex 1.1210782528 1.3460179567 1.5009962320
      vertex 1.1207886934 1.2803628445 1.5008907318
    endloop
  endfacet
  facet normal 0.0009353602 0.0015996313 -0.9999982831
    outer loop
      vertex 1.3494737148 1.3825283051 1.5012682676
      vertex 1.1210782528 1.3460179567 1.5009962320
      vertex 0.9430367947 1.3843213320 1.5008909702
    endloop
  endfacet
  facet normal 0.0009317941 0.0016219398 -0.9999982505
    outer loop
      vertex 1.3494737148 1.3825283051 1.5012682676
      vertex 1.1711013317 1.3457971811 1.5010424852
      vertex 1.1210782528 1.3460179567 1.5009962320
    endloop
  endfacet
  facet normal 0.0009361186 0.0016009393 -0.9999982803
    outer loop
      vertex 1.1708116531 1.2801421881 1.5009371042
      vertex 1.1711013317 1.3457971811 1.5010424852
      vertex 1.3494737148 1.3825283051 1.5012682676
    endloop
  endfacet
  facet normal -0.0009336046 -0.0016006179 0.9999982832
    outer loop
      vertex 1.0210070610 1.2223029137 0.9379389882
      vertex 0.9435629845 1.3852223158 0.9381274581
      vertex 0.9428460002 1.2226477861 0.9378665686
    endloop
  endfacet
  facet normal -0.0009336053 -0.0016006182 0.9999982832
    outer loop
      vertex 1.0217239857 1.3848774433 0.9381998777
      vertex 0.9435629845 1.3852223158 0.9381274581
      vertex 1.0210070610 1.2223029137 0.9379389882
    endloop
  endfacet
  facet normal -0.0009328460 -0.0016013535 0.9999982827
    outer loop
      vertex 1.2718389034 1.3837740421 0.9384321570
      vertex 1.3492827415 1.2208546400 0.9382435083
      vertex 1.3499999046 1.3834291697 0.9385045171
    endloop
  endfacet
  facet normal -0.0009320822 -0.0016009904 0.9999982840
    outer loop
      vertex 1.2711219788 1.2211993933 0.9381712079
      vertex 1.3492827415 1.2208546400 0.9382435083
      vertex 1.2718389034 1.3837740421 0.9384321570
    endloop
  endfacet
  facet normal 0.9999898400 -0.0044112655 0.0009277235
    outer loop
      vertex 1.0210070610 1.2223029137 0.9379389882
      vertex 1.0226010084 1.3863790035 0.0000000000
      vertex 1.0217239857 1.3848774433 0.9381998777
    endloop
  endfacet
  facet normal 0.9999898432 -0.0044105100 0.0009278556
    outer loop
      vertex 1.0218839645 1.2238044739 0.0000000000
      vertex 1.0226010084 1.3863790035 0.0000000000
      vertex 1.0210070610 1.2223029137 0.9379389882
    endloop
  endfacet
  facet normal -0.9999898401 0.0044112625 -0.0009276248
    outer loop
      vertex 1.2718389034 1.3837740421 0.9384321570
      vertex 1.2719988823 1.2227009535 0.0000000000
      vertex 1.2711219788 1.2211993933 0.9381712079
    endloop
  endfacet
  facet normal -0.9999898402 0.0044112400 -0.0009276209
    outer loop
      vertex 1.2727160454 1.3852756023 0.0000000000
      vertex 1.2719988823 1.2227009535 0.0000000000
      vertex 1.2718389034 1.3837740421 0.9384321570
    endloop
  endfacet
endsolid PASSENGER4
solid PASSENGER2
  facet normal -0.9999898401 0.0044112625 -0.0009276249
    outer loop
      vertex 1.2718389034 0.3837740421 0.9384321570
      vertex 1.2719988823 0.2227009237 0.0000000000
      vertex 1.2711219788 0.2211993933 0.9381712079
    endloop
  endfacet
  facet normal -0.9999898402 0.0044112384 -0.0009276208
    outer loop
      vertex 1.2727160454 0.3852756321 0.0000000000
      vertex 1.2719988823 0.2227009237 0.0000000000
      vertex 1.2718389034 0.3837740421 0.9384321570
    endloop
  endfacet
  facet normal 0.9999898400 -0.0044112655 0.0009277239
    outer loop
      vertex 1.0210070610 0.2223029137 0.9379389882
      vertex 1.0226010084 0.3863789141 0.0000000000
      vertex 1.0217239857 0.3848774433 0.9381998777
    endloop
  endfacet
  facet normal 0.9999898432 -0.0044105116 0.0009278558
    outer loop
      vertex 1.0218839645 0.2238044441 0.0000000000
      vertex 1.0226010084 0.3863789141 0.0000000000
      vertex 1.0210070610 0.2223029137 0.9379389882
    endloop
  endfacet
  facet normal -0.0009328460 -0.0016013535 0.9999982827
    outer loop
      vertex 1.2718389034 0.3837740421 0.9384321570
      vertex 1.3492827415 0.2208546400 0.9382435083
      vertex 1.3499999046 0.3834291697 0.9385045171
    endloop
  endfacet
  facet normal -0.0009320822 -0.0016009904 0.9999982840
    outer loop
      vertex 1.2711219788 0.2211993933 0.9381712079
      vertex 1.3492827415 0.2208546400 0.9382435083
      vertex 1.2718389034 0.3837740421 0.9384321570
    endloop
  endfacet
  facet normal -0.0009336046 -0.0016006179 0.9999982832
    outer loop
      vertex 1.0210070610 0.2223029137 0.9379389882
      vertex 0.9435629845 0.3852223158 0.9381274581
      vertex 0.9428460002 0.2226477861 0.9378665686
    endloop
  endfacet
  facet normal -0.0009336053 -0.0016006182 0.9999982832
    outer loop
      vertex 1.0217239857 0.3848774433 0.9381998777
      vertex 0.9435629845 0.3852223158 0.9381274581
      vertex 1.0210070610 0.2223029137 0.9379389882
    endloop
  endfacet
  facet normal 0.0009352573 0.0016024422 -0.9999982787
    outer loop
      vertex 1.3487566710 0.2199536562 1.5010070801
      vertex 1.1708116531 0.2801421881 1.5009371042
      vertex 1.3494737148 0.3825283051 1.5012682676
    endloop
  endfacet
  facet normal 0.0009347804 0.0016010323 -0.9999982814
    outer loop
      vertex 0.9423198104 0.2217468023 1.5006300211
      vertex 1.1708116531 0.2801421881 1.5009371042
      vertex 1.3487566710 0.2199536562 1.5010070801
    endloop
  endfacet
  facet normal 0.0009340951 0.0016037137 -0.9999982778
    outer loop
      vertex 0.9423198104 0.2217468023 1.5006300211
      vertex 1.1207886934 0.2803628445 1.5008907318
      vertex 1.1708116531 0.2801421881 1.5009371042
    endloop
  endfacet
  facet normal 0.0009349935 0.0016009784 -0.9999982813
    outer loop
      vertex 0.9430367947 0.3843213320 1.5008909702
      vertex 1.1207886934 0.2803628445 1.5008907318
      vertex 0.9423198104 0.2217468023 1.5006300211
    endloop
  endfacet
  facet normal 0.0009360321 0.0016027541 -0.9999982775
    outer loop
      vertex 0.9430367947 0.3843213320 1.5008909702
      vertex 1.1210782528 0.3460179567 1.5009962320
      vertex 1.1207886934 0.2803628445 1.5008907318
    endloop
  endfacet
  facet normal 0.0009353602 0.0015996313 -0.9999982831
    outer loop
      vertex 1.3494737148 0.3825283051 1.5012682676
      vertex 1.1210782528 0.3460179567 1.5009962320
      vertex 0.9430367947 0.3843213320 1.5008909702
    endloop
  endfacet
  facet normal 0.0009317941 0.0016219398 -0.9999982505
    outer loop
      vertex 1.3494737148 0.3825283051 1.5012682676
      vertex 1.1711013317 0.3457971811 1.5010424852
      vertex 1.1210782528 0.3460179567 1.5009962320
    endloop
  endfacet
  facet normal 0.0009361186 0.0016009393 -0.9999982803
    outer loop
      vertex 1.1708116531 0.2801421881 1.5009371042
      vertex 1.1711013317 0.3457971811 1.5010424852
      vertex 1.3494737148 0.3825283051 1.5012682676
    endloop
  endfacet
  facet normal -0.0044100385 -0.9999889890 -0.0016042094
    outer loop
      vertex 1.0217239857 0.3848774433 0.9381998777
      vertex 1.2727160454 0.3852756321 0.0000000000
      vertex 1.2718389034 0.3837740421 0.9384321570
    endloop
  endfacet
  facet normal -0.0044110495 -0.9999889841 -0.0016044799
    outer loop
      vertex 1.0226010084 0.3863789141 0.0000000000
      vertex 1.2727160454 0.3852756321 0.0000000000
      vertex 1.0217239857 0.3848774433 0.9381998777
    endloop
  endfacet
  facet normal -0.0044108000 -0.9999889845 -0.0016048930
    outer loop
      vertex 1.3494737148 0.3825283051 1.5012682676
      vertex 1.2718389034 0.3837740421 0.9384321570
      vertex 1.3499999046 0.3834291697 0.9385045171
    endloop
  endfacet
  facet normal -0.0044100364 -0.9999889877 -0.0016049983
    outer loop
      vertex 0.9430367947 0.3843213320 1.5008909702
      vertex 1.2718389034 0.3837740421 0.9384321570
      vertex 1.3494737148 0.3825283051 1.5012682676
    endloop
  endfacet
  facet normal -0.0044100377 -0.9999889877 -0.0016049991
    outer loop
      vertex 0.9430367947 0.3843213320 1.5008909702
      vertex 1.0217239857 0.3848774433 0.9381998777
      vertex 1.2718389034 0.3837740421 0.9384321570
    endloop
  endfacet
  facet normal -0.0044107986 -0.9999889842 -0.0016051055
    outer loop
      vertex 0.9435629845 0.3852223158 0.9381274581
      vertex 1.0217239857 0.3848774433 0.9381998777
      vertex 0.9430367947 0.3843213320 1.5008909702
    endloop
  endfacet
  facet normal -0.9999898368 0.0044119972 -0.0009277255
    outer loop
      vertex 1.3494737148 0.3825283051 1.5012682676
      vertex 1.3492827415 0.2208546400 0.9382435083
      vertex 1.3487566710 0.2199536562 1.5010070801
    endloop
  endfacet
  facet normal -0.9999898333 0.0044127330 -0.0009279368
    outer loop
      vertex 1.3499999046 0.3834291697 0.9385045171
      vertex 1.3492827415 0.2208546400 0.9382435083
      vertex 1.3494737148 0.3825283051 1.5012682676
    endloop
  endfacet
  facet normal 0.0044105147 0.9999889856 0.0016049887
    outer loop
      vertex 1.2711219788 0.2211993933 0.9381712079
      vertex 1.0218839645 0.2238044441 0.0000000000
      vertex 1.0210070610 0.2223029137 0.9379389882
    endloop
  endfacet
  facet normal 0.0044120049 0.9999889797 0.0016045928
    outer loop
      vertex 1.2719988823 0.2227009237 0.0000000000
      vertex 1.0218839645 0.2238044441 0.0000000000
      vertex 1.2711219788 0.2211993933 0.9381712079
    endloop
  endfacet
  facet normal 0.0044107952 0.9999889842 0.0016051057
    outer loop
      vertex 0.9423198104 0.2217468023 1.5006300211
      vertex 1.0210070610 0.2223029137 0.9379389882
      vertex 0.9428460002 0.2226477861 0.9378665686
    endloop
  endfacet
  facet normal 0.0044103313 0.9999889864 0.0016050408
    outer loop
      vertex 1.3487566710 0.2199536562 1.5010070801
      vertex 1.0210070610 0.2223029137 0.9379389882
      vertex 0.9423198104 0.2217468023 1.5006300211
    endloop
  endfacet
  facet normal 0.0044105148 0.9999889857 0.0016049339
    outer loop
      vertex 1.3487566710 0.2199536562 1.5010070801
      vertex 1.2711219788 0.2211993933 0.9381712079
      vertex 1.0210070610 0.2223029137 0.9379389882
    endloop
  endfacet
  facet normal 0.0044092894 0.9999889908 0.0016051030
    outer loop
      vertex 1.3492827415 0.2208546400 0.9382435083
      vertex 1.2711219788 0.2211993933 0.9381712079
      vertex 1.3487566710 0.2199536562 1.5010070801
    endloop
  endfacet
  facet normal 0.9999898382 -0.0044116328 0.0009279380
    outer loop
      vertex 0.9423198104 0.2217468023 1.5006300211
      vertex 0.9435629845 0.3852223158 0.9381274581
      vertex 0.9430367947 0.3843213320 1.5008909702
    endloop
  endfacet
  facet normal 0.9999898382 -0.0044116325 0.0009279381
    outer loop
      vertex 0.9428460002 0.2226477861 0.9378665686
      vertex 0.9435629845 0.3852223158 0.9381274581
      vertex 0.9423198104 0.2217468023 1.5006300211
    endloop
  endfacet
  facet normal 0.9999898384 -0.0044117544 0.0009270879
    outer loop
      vertex 1.1210782528 0.3460179567 1.5009962320
      vertex 1.1207594872 0.2803127766 1.5321553946
      vertex 1.1207886934 0.2803628445 1.5008907318
    endloop
  endfacet
  facet normal 0.9999898384 -0.0044117494 0.0009270986
    outer loop
      vertex 1.1210490465 0.3459678888 1.5322605371
      vertex 1.1207594872 0.2803127766 1.5321553946
      vertex 1.1210782528 0.3460179567 1.5009962320
    endloop
  endfacet
  facet normal -0.9999898268 0.0044135825 -0.0009308979
    outer loop
      vertex 1.1708116531 0.2801421881 1.5009371042
      vertex 1.1710720062 0.3457471132 1.5323071480
      vertex 1.1711013317 0.3457971811 1.5010424852
    endloop
  endfacet
  facet normal -0.9999898384 0.0044117624 -0.0009270915
    outer loop
      vertex 1.1707824469 0.2800921202 1.5322016478
      vertex 1.1710720062 0.3457471132 1.5323071480
      vertex 1.1708116531 0.2801421881 1.5009371042
    endloop
  endfacet
  facet normal 0.0044095654 0.9999889889 0.0016055292
    outer loop
      vertex 1.1207886934 0.2803628445 1.5008907318
      vertex 1.1707824469 0.2800921202 1.5322016478
      vertex 1.1708116531 0.2801421881 1.5009371042
    endloop
  endfacet
  facet normal 0.0044095692 0.9999889889 0.0016055231
    outer loop
      vertex 1.1207594872 0.2803127766 1.5321553946
      vertex 1.1707824469 0.2800921202 1.5322016478
      vertex 1.1207886934 0.2803628445 1.5008907318
    endloop
  endfacet
  facet normal -0.0044119417 -0.9999889784 -0.0016055436
    outer loop
      vertex 1.1711013317 0.3457971811 1.5010424852
      vertex 1.1210490465 0.3459678888 1.5322605371
      vertex 1.1210782528 0.3460179567 1.5009962320
    endloop
  endfacet
  facet normal -0.0044119408 -0.9999889784 -0.0016055421
    outer loop
      vertex 1.1710720062 0.3457471132 1.5323071480
      vertex 1.1210490465 0.3459678888 1.5322605371
      vertex 1.1711013317 0.3457971811 1.5010424852
    endloop
  endfacet
endsolid PASSENGER2
solid PASSENGER1
  facet normal -0.0044119470 0.9999889784 0.0016055478
    outer loop
      vertex 0.3788986802 0.3457971811 1.5010424852
      vertex 0.4289509356 0.3459678888 1.5322605371
      vertex 0.4289216995 0.3460179567 1.5009962320
    endloop
  endfacet
  facet normal -0.0044119355 0.9999889785 0.0016055295
    outer loop
      vertex 0.3789279163 0.3457471132 1.5323071480
      vertex 0.4289509356 0.3459678888 1.5322605371
      vertex 0.3788986802 0.3457971811 1.5010424852
    endloop
  endfacet
  facet normal 0.0044095602 -0.9999889890 -0.0016055376
    outer loop
      vertex 0.4292112589 0.2803628445 1.5008907318
      vertex 0.3792175055 0.2800921202 1.5322016478
      vertex 0.3791882396 0.2801421881 1.5009371042
    endloop
  endfacet
  facet normal 0.0044095640 -0.9999889889 -0.0016055315
    outer loop
      vertex 0.4292405248 0.2803127766 1.5321553946
      vertex 0.3792175055 0.2800921202 1.5322016478
      vertex 0.4292112589 0.2803628445 1.5008907318
    endloop
  endfacet
  facet normal -0.9999898375 -0.0044117622 0.0009280411
    outer loop
      vertex 0.3791882396 0.2801421881 1.5009371042
      vertex 0.3789279163 0.3457471132 1.5323071480
      vertex 0.3788986802 0.3457971811 1.5010424852
    endloop
  endfacet
  facet normal -0.9999898346 -0.0044122194 0.0009289972
    outer loop
      vertex 0.3792175055 0.2800921202 1.5322016478
      vertex 0.3789279163 0.3457471132 1.5323071480
      vertex 0.3791882396 0.2801421881 1.5009371042
    endloop
  endfacet
  facet normal 0.9999898366 0.0044117574 -0.0009289944
    outer loop
      vertex 0.4289216995 0.3460179567 1.5009962320
      vertex 0.4292405248 0.2803127766 1.5321553946
      vertex 0.4292112589 0.2803628445 1.5008907318
    endloop
  endfacet
  facet normal 0.9999898355 0.0044122048 -0.0009280511
    outer loop
      vertex 0.4289509356 0.3459678888 1.5322605371
      vertex 0.4292405248 0.2803127766 1.5321553946
      vertex 0.4289216995 0.3460179567 1.5009962320
    endloop
  endfacet
  facet normal 0.9999898382 0.0044116328 -0.0009279380
    outer loop
      vertex 0.6076801419 0.2217468023 1.5006300211
      vertex 0.6064369678 0.3852223158 0.9381274581
      vertex 0.6069631577 0.3843213320 1.5008909702
    endloop
  endfacet
  facet normal 0.9999898382 0.0044116325 -0.0009279381
    outer loop
      vertex 0.6071539521 0.2226477861 0.9378665686
      vertex 0.6064369678 0.3852223158 0.9381274581
      vertex 0.6076801419 0.2217468023 1.5006300211
    endloop
  endfacet
  facet normal 0.0044105147 -0.9999889856 -0.0016050208
    outer loop
      vertex 0.2788780332 0.2211993933 0.9381712079
      vertex 0.5281159878 0.2238044739 0.0000000212
      vertex 0.5289929509 0.2223029137 0.9379389882
    endloop
  endfacet
  facet normal 0.0044105144 -0.9999889856 -0.0016050209
    outer loop
      vertex 0.2780010104 0.2227009535 0.0002321284
      vertex 0.5281159878 0.2238044739 0.0000000212
      vertex 0.2788780332 0.2211993933 0.9381712079
    endloop
  endfacet
  facet normal 0.0044107986 -0.9999889842 -0.0016051057
    outer loop
      vertex 0.6076801419 0.2217468023 1.5006300211
      vertex 0.5289929509 0.2223029137 0.9379389882
      vertex 0.6071539521 0.2226477861 0.9378665686
    endloop
  endfacet
  facet normal 0.0044103316 -0.9999889863 -0.0016050404
    outer loop
      vertex 0.2012433112 0.2199536562 1.5010070801
      vertex 0.5289929509 0.2223029137 0.9379389882
      vertex 0.6076801419 0.2217468023 1.5006300211
    endloop
  endfacet
  facet normal 0.0044105148 -0.9999889857 -0.0016049337
    outer loop
      vertex 0.2012433112 0.2199536562 1.5010070801
      vertex 0.2788780332 0.2211993933 0.9381712079
      vertex 0.5289929509 0.2223029137 0.9379389882
    endloop
  endfacet
  facet normal 0.0044092818 -0.9999889909 -0.0016051038
    outer loop
      vertex 0.2007171363 0.2208546400 0.9382435083
      vertex 0.2788780332 0.2211993933 0.9381712079
      vertex 0.2012433112 0.2199536562 1.5010070801
    endloop
  endfacet
  facet normal -0.9999898378 -0.0044117226 0.0009279113
    outer loop
      vertex 0.2005263120 0.3825283051 1.5012682676
      vertex 0.2007171363 0.2208546400 0.9382435083
      vertex 0.2012433112 0.2199536562 1.5010070801
    endloop
  endfacet
  facet normal -0.9999898374 -0.0044118165 0.0009279382
    outer loop
      vertex 0.2000001222 0.3834291697 0.9385045171
      vertex 0.2007171363 0.2208546400 0.9382435083
      vertex 0.2005263120 0.3825283051 1.5012682676
    endloop
  endfacet
  facet normal -0.0044100367 0.9999889877 0.0016050204
    outer loop
      vertex 0.5282760262 0.3848774433 0.9381998777
      vertex 0.2772840261 0.3852756023 0.0004930707
      vertex 0.2781610489 0.3837740421 0.9384321570
    endloop
  endfacet
  facet normal -0.0044100388 0.9999889877 0.0016050210
    outer loop
      vertex 0.5273989439 0.3863790035 0.0002609564
      vertex 0.2772840261 0.3852756023 0.0004930707
      vertex 0.5282760262 0.3848774433 0.9381998777
    endloop
  endfacet
  facet normal -0.0044108042 0.9999889845 0.0016048930
    outer loop
      vertex 0.2005263120 0.3825283051 1.5012682676
      vertex 0.2781610489 0.3837740421 0.9384321570
      vertex 0.2000001222 0.3834291697 0.9385045171
    endloop
  endfacet
  facet normal -0.0044100372 0.9999889877 0.0016049988
    outer loop
      vertex 0.6069631577 0.3843213320 1.5008909702
      vertex 0.2781610489 0.3837740421 0.9384321570
      vertex 0.2005263120 0.3825283051 1.5012682676
    endloop
  endfacet
  facet normal -0.0044100367 0.9999889877 0.0016049985
    outer loop
      vertex 0.6069631577 0.3843213320 1.5008909702
      vertex 0.5282760262 0.3848774433 0.9381998777
      vertex 0.2781610489 0.3837740421 0.9384321570
    endloop
  endfacet
  facet normal -0.0044108020 0.9999889842 0.0016051055
    outer loop
      vertex 0.6064369678 0.3852223158 0.9381274581
      vertex 0.5282760262 0.3848774433 0.9381998777
      vertex 0.6069631577 0.3843213320 1.5008909702
    endloop
  endfacet
  facet normal 0.0009352579 -0.0016024425 0.9999982787
    outer loop
      vertex 0.2012433112 0.2199536562 1.5010070801
      vertex 0.3791882396 0.2801421881 1.5009371042
      vertex 0.2005263120 0.3825283051 1.5012682676
    endloop
  endfacet
  facet normal 0.0009347805 -0.0016010311 0.9999982814
    outer loop
      vertex 0.6076801419 0.2217468023 1.5006300211
      vertex 0.3791882396 0.2801421881 1.5009371042
      vertex 0.2012433112 0.2199536562 1.5010070801
    endloop
  endfacet
  facet normal 0.0009340940 -0.0016037171 0.9999982778
    outer loop
      vertex 0.6076801419 0.2217468023 1.5006300211
      vertex 0.4292112589 0.2803628445 1.5008907318
      vertex 0.3791882396 0.2801421881 1.5009371042
    endloop
  endfacet
  facet normal 0.0009349935 -0.0016009784 0.9999982813
    outer loop
      vertex 0.6069631577 0.3843213320 1.5008909702
      vertex 0.4292112589 0.2803628445 1.5008907318
      vertex 0.6076801419 0.2217468023 1.5006300211
    endloop
  endfacet
  facet normal 0.0009360321 -0.0016027541 0.9999982775
    outer loop
      vertex 0.6069631577 0.3843213320 1.5008909702
      vertex 0.4289216995 0.3460179567 1.5009962320
      vertex 0.4292112589 0.2803628445 1.5008907318
    endloop
  endfacet
  facet normal 0.0009353604 -0.0015996321 0.9999982831
    outer loop
      vertex 0.2005263120 0.3825283051 1.5012682676
      vertex 0.4289216995 0.3460179567 1.5009962320
      vertex 0.6069631577 0.3843213320 1.5008909702
    endloop
  endfacet
  facet normal 0.0009317952 -0.0016219349 0.9999982505
    outer loop
      vertex 0.2005263120 0.3825283051 1.5012682676
      vertex 0.3788986802 0.3457971811 1.5010424852
      vertex 0.4289216995 0.3460179567 1.5009962320
    endloop
  endfacet
  facet normal 0.0009361183 -0.0016009410 0.9999982803
    outer loop
      vertex 0.3791882396 0.2801421881 1.5009371042
      vertex 0.3788986802 0.3457971811 1.5010424852
      vertex 0.2005263120 0.3825283051 1.5012682676
    endloop
  endfacet
  facet normal -0.0009336053 0.0016006179 -0.9999982832
    outer loop
      vertex 0.5289929509 0.2223029137 0.9379389882
      vertex 0.6064369678 0.3852223158 0.9381274581
      vertex 0.6071539521 0.2226477861 0.9378665686
    endloop
  endfacet
  facet normal -0.0009336061 0.0016006182 -0.9999982832
    outer loop
      vertex 0.5282760262 0.3848774433 0.9381998777
      vertex 0.6064369678 0.3852223158 0.9381274581
      vertex 0.5289929509 0.2223029137 0.9379389882
    endloop
  endfacet
  facet normal -0.0009328469 0.0016013543 -0.9999982827
    outer loop
      vertex 0.2781610489 0.3837740421 0.9384321570
      vertex 0.2007171363 0.2208546400 0.9382435083
      vertex 0.2000001222 0.3834291697 0.9385045171
    endloop
  endfacet
  facet normal -0.0009320806 0.0016009901 -0.9999982840
    outer loop
      vertex 0.2788780332 0.2211993933 0.9381712079
      vertex 0.2007171363 0.2208546400 0.9382435083
      vertex 0.2781610489 0.3837740421 0.9384321570
    endloop
  endfacet
  facet normal 0.9999898397 0.0044112660 -0.0009280451
    outer loop
      vertex 0.5289929509 0.2223029137 0.9379389882
      vertex 0.5273989439 0.3863790035 0.0002609564
      vertex 0.5282760262 0.3848774433 0.9381998777
    endloop
  endfacet
  facet normal 0.9999898366 0.0044119993 -0.0009279168
    outer loop
      vertex 0.5281159878 0.2238044739 0.0000000212
      vertex 0.5273989439 0.3863790035 0.0002609564
      vertex 0.5289929509 0.2223029137 0.9379389882
    endloop
  endfacet
  facet normal -0.9999898381 -0.0044116297 0.0009279808
    outer loop
      vertex 0.2781610489 0.3837740421 0.9384321570
      vertex 0.2780010104 0.2227009535 0.0002321284
      vertex 0.2788780332 0.2211993933 0.9381712079
    endloop
  endfacet
  facet normal -0.9999898381 -0.0044116296 0.0009279808
    outer loop
      vertex 0.2772840261 0.3852756023 0.0004930707
      vertex 0.2780010104 0.2227009535 0.0002321284
      vertex 0.2781610489 0.3837740421 0.9384321570
    endloop
  endfacet
endsolid PASSENGER1
